<svg xmlns="http://www.w3.org/2000/svg" xmlns:xlink="http://www.w3.org/1999/xlink" width="113" zoomAndPan="magnify" viewBox="0 0 84.75 84.749999" height="113" preserveAspectRatio="xMidYMid meet" version="1.2"><g id="38e159b62f"><path style=" stroke:none;fill-rule:nonzero;fill:#1d1d1b;fill-opacity:1;" d="M 24.867188 36.394531 C 24.867188 37.574219 23.773438 38.097656 22.128906 38.097656 L 21.71875 38.097656 L 21.71875 39.976562 C 21.71875 40.269531 21.777344 40.394531 21.902344 40.46875 C 21.902344 40.484375 21.902344 40.527344 21.902344 40.527344 L 20.867188 40.527344 C 20.867188 40.527344 20.867188 40.484375 20.867188 40.46875 C 21.003906 40.394531 21.058594 40.269531 21.058594 39.976562 L 21.058594 35.246094 C 21.058594 34.945312 21.003906 34.828125 20.867188 34.75 C 20.867188 34.734375 20.867188 34.683594 20.867188 34.683594 L 22.128906 34.683594 C 23.773438 34.683594 24.867188 35.210938 24.867188 36.394531 Z M 24.207031 36.394531 C 24.207031 35.410156 23.632812 34.75 22.128906 34.75 L 21.71875 34.75 L 21.71875 38.03125 L 22.128906 38.03125 C 23.632812 38.03125 24.207031 37.371094 24.207031 36.394531 Z M 24.207031 36.394531 "/><path style=" stroke:none;fill-rule:nonzero;fill:#1d1d1b;fill-opacity:1;" d="M 28.421875 40.527344 L 27.578125 40.527344 L 27.578125 39.359375 C 27.363281 40.09375 26.902344 40.578125 26.101562 40.578125 C 25.417969 40.578125 24.75 40.253906 24.640625 39.652344 C 24.5 38.800781 25.007812 38.300781 25.652344 38.03125 C 25.433594 37.546875 25.691406 36.511719 26.8125 36.511719 C 27.503906 36.511719 28.238281 36.878906 28.238281 37.90625 L 28.238281 39.976562 C 28.238281 40.269531 28.296875 40.394531 28.421875 40.46875 C 28.421875 40.484375 28.421875 40.527344 28.421875 40.527344 Z M 27.578125 39.210938 L 27.578125 37.921875 C 27.539062 37.90625 27.335938 37.847656 27.078125 37.847656 C 26.167969 37.847656 24.933594 38.300781 25.292969 39.769531 C 25.402344 40.21875 25.886719 40.496094 26.300781 40.46875 C 27.027344 40.425781 27.414062 39.808594 27.578125 39.210938 Z M 25.734375 38 C 26.183594 37.832031 26.6875 37.773438 27.078125 37.773438 C 27.269531 37.773438 27.4375 37.808594 27.578125 37.847656 L 27.578125 37.789062 C 27.578125 37.15625 27.328125 36.597656 26.734375 36.597656 C 25.984375 36.597656 25.484375 37.324219 25.734375 38 Z M 25.734375 38 "/><path style=" stroke:none;fill-rule:nonzero;fill:#1d1d1b;fill-opacity:1;" d="M 34.691406 36.511719 L 34.691406 36.578125 C 34.355469 36.898438 34.125 37.257812 33.855469 37.890625 L 33.113281 39.835938 L 33.378906 40.527344 L 32.722656 40.527344 C 32.722656 40.527344 31.695312 37.839844 31.652344 37.730469 L 30.96875 39.933594 L 31.21875 40.527344 L 30.558594 40.527344 L 29.523438 38.089844 C 29.171875 37.273438 29 36.914062 28.589844 36.578125 L 28.589844 36.511719 L 29.875 36.511719 L 29.875 36.578125 C 29.65625 36.804688 29.734375 37.03125 29.925781 37.496094 L 30.925781 39.851562 L 31.617188 37.648438 C 31.410156 37.128906 31.261719 36.847656 30.933594 36.578125 L 30.933594 36.511719 L 32.21875 36.511719 L 32.21875 36.578125 C 31.96875 36.839844 32.078125 37.105469 32.304688 37.714844 L 33.089844 39.75 L 33.707031 38.117188 C 34.007812 37.339844 34.082031 36.878906 33.707031 36.578125 L 33.707031 36.511719 Z M 34.691406 36.511719 "/><path style=" stroke:none;fill-rule:nonzero;fill:#1d1d1b;fill-opacity:1;" d="M 36.132812 37.765625 L 36.132812 39.976562 C 36.132812 40.269531 36.191406 40.394531 36.320312 40.46875 C 36.320312 40.484375 36.320312 40.527344 36.320312 40.527344 L 35.292969 40.527344 C 35.292969 40.527344 35.292969 40.484375 35.292969 40.46875 C 35.417969 40.394531 35.476562 40.269531 35.476562 39.976562 L 35.476562 38.089844 L 34.605469 38.515625 L 34.605469 38.433594 L 35.476562 38.007812 L 35.476562 35.152344 C 35.476562 34.851562 35.449219 34.777344 35.292969 34.75 C 35.292969 34.734375 35.292969 34.683594 35.292969 34.683594 L 36.078125 34.511719 L 36.132812 34.511719 L 36.132812 37.691406 L 37.003906 37.257812 L 37.003906 37.339844 Z M 36.132812 37.765625 "/><path style=" stroke:none;fill-rule:nonzero;fill:#1d1d1b;fill-opacity:1;" d="M 41.601562 38.367188 C 41.601562 39.703125 40.457031 40.578125 39.339844 40.578125 C 38.214844 40.578125 37.253906 39.894531 37.253906 38.726562 C 37.253906 37.347656 38.398438 36.511719 39.515625 36.511719 C 40.632812 36.511719 41.601562 37.214844 41.601562 38.367188 Z M 40.902344 38.097656 C 40.609375 37.097656 39.824219 36.386719 38.871094 36.664062 C 37.921875 36.9375 37.664062 37.980469 37.953125 38.992188 C 38.246094 39.992188 39.03125 40.710938 39.984375 40.425781 C 40.933594 40.152344 41.191406 39.109375 40.902344 38.097656 Z M 40.902344 38.097656 "/><path style=" stroke:none;fill-rule:nonzero;fill:#1d1d1b;fill-opacity:1;" d="M 47.871094 36.511719 L 47.871094 36.578125 C 47.535156 36.898438 47.304688 37.257812 47.035156 37.890625 L 46.292969 39.835938 L 46.558594 40.527344 L 45.902344 40.527344 C 45.902344 40.527344 44.875 37.839844 44.832031 37.730469 L 44.148438 39.933594 L 44.398438 40.527344 L 43.738281 40.527344 L 42.703125 38.089844 C 42.351562 37.273438 42.179688 36.914062 41.769531 36.578125 L 41.769531 36.511719 L 43.054688 36.511719 L 43.054688 36.578125 C 42.835938 36.804688 42.914062 37.03125 43.105469 37.496094 L 44.105469 39.851562 L 44.796875 37.648438 C 44.589844 37.128906 44.441406 36.847656 44.113281 36.578125 L 44.113281 36.511719 L 45.398438 36.511719 L 45.398438 36.578125 C 45.148438 36.839844 45.257812 37.105469 45.484375 37.714844 L 46.269531 39.75 L 46.886719 38.117188 C 47.1875 37.339844 47.261719 36.878906 46.886719 36.578125 L 46.886719 36.511719 Z M 47.871094 36.511719 "/><path style=" stroke:none;fill-rule:nonzero;fill:#1d1d1b;fill-opacity:1;" d="M 50.898438 37.046875 L 50.734375 37.816406 L 50.691406 37.816406 C 50.433594 37.105469 49.898438 36.589844 49.421875 36.589844 C 48.855469 36.589844 48.539062 36.90625 48.496094 37.246094 C 48.378906 38.367188 51.191406 38.066406 51.101562 39.425781 C 51.050781 40.085938 50.433594 40.578125 49.496094 40.578125 C 48.820312 40.578125 48.320312 40.351562 47.871094 40.019531 L 48.046875 39.183594 L 48.085938 39.183594 C 48.371094 39.769531 48.996094 40.460938 49.738281 40.460938 C 50.339844 40.460938 50.792969 40.152344 50.839844 39.792969 C 51 38.699219 48.085938 39.183594 48.289062 37.546875 C 48.355469 37.003906 48.65625 36.511719 49.566406 36.511719 C 50 36.511719 50.566406 36.789062 50.898438 37.046875 Z M 50.898438 37.046875 "/><path style=" stroke:none;fill-rule:nonzero;fill:#1d1d1b;fill-opacity:1;" d="M 55.574219 40.46875 L 55.574219 40.527344 L 54.304688 40.527344 L 54.304688 40.46875 C 54.496094 40.320312 54.40625 40.109375 54.15625 39.683594 L 53.210938 38.148438 L 52.535156 38.742188 L 52.535156 39.933594 C 52.535156 40.226562 52.59375 40.394531 52.726562 40.46875 C 52.726562 40.484375 52.726562 40.527344 52.726562 40.527344 L 51.691406 40.527344 C 51.691406 40.527344 51.691406 40.484375 51.691406 40.46875 C 51.820312 40.394531 51.875 40.226562 51.875 39.933594 L 51.875 35.101562 C 51.875 34.808594 51.851562 34.777344 51.691406 34.75 C 51.691406 34.734375 51.691406 34.683594 51.691406 34.683594 L 52.476562 34.511719 L 52.535156 34.511719 L 52.535156 38.667969 L 53.421875 37.890625 C 54.28125 37.121094 54.480469 36.796875 54.148438 36.578125 L 54.148438 36.511719 L 55.25 36.511719 L 55.25 36.578125 C 54.789062 36.761719 54.390625 37.105469 53.628906 37.773438 L 54.398438 39 C 54.972656 39.933594 55.199219 40.292969 55.574219 40.46875 Z M 55.574219 40.46875 "/><path style=" stroke:none;fill-rule:nonzero;fill:#1d1d1b;fill-opacity:1;" d="M 59.546875 40.527344 L 58.703125 40.527344 L 58.703125 39.359375 C 58.488281 40.09375 58.027344 40.578125 57.226562 40.578125 C 56.542969 40.578125 55.875 40.253906 55.765625 39.652344 C 55.625 38.800781 56.132812 38.300781 56.777344 38.03125 C 56.558594 37.546875 56.816406 36.511719 57.9375 36.511719 C 58.628906 36.511719 59.363281 36.878906 59.363281 37.90625 L 59.363281 39.976562 C 59.363281 40.269531 59.421875 40.394531 59.546875 40.46875 C 59.546875 40.484375 59.546875 40.527344 59.546875 40.527344 Z M 58.703125 39.210938 L 58.703125 37.921875 C 58.664062 37.90625 58.460938 37.847656 58.203125 37.847656 C 57.292969 37.847656 56.058594 38.300781 56.417969 39.769531 C 56.527344 40.21875 57.011719 40.496094 57.425781 40.46875 C 58.152344 40.425781 58.539062 39.808594 58.703125 39.210938 Z M 56.859375 38 C 57.3125 37.832031 57.8125 37.773438 58.203125 37.773438 C 58.394531 37.773438 58.5625 37.808594 58.703125 37.847656 L 58.703125 37.789062 C 58.703125 37.15625 58.453125 36.597656 57.863281 36.597656 C 57.109375 36.597656 56.609375 37.324219 56.859375 38 Z M 56.859375 38 "/><path style=" stroke:none;fill-rule:nonzero;fill:#1d1d1b;fill-opacity:1;" d="M 30.414062 44.042969 L 30.84375 44.042969 C 31.089844 44.042969 31.257812 44.054688 31.34375 44.074219 C 31.46875 44.105469 31.570312 44.167969 31.644531 44.261719 C 31.722656 44.359375 31.761719 44.476562 31.761719 44.617188 C 31.761719 44.757812 31.722656 44.878906 31.648438 44.972656 C 31.574219 45.0625 31.46875 45.125 31.332031 45.160156 C 31.234375 45.183594 31.050781 45.195312 30.785156 45.195312 L 30.628906 45.195312 L 30.628906 46.195312 L 30.414062 46.195312 Z M 30.628906 44.253906 L 30.628906 44.984375 L 30.996094 44.988281 C 31.144531 44.988281 31.25 44.976562 31.324219 44.949219 C 31.390625 44.921875 31.445312 44.875 31.484375 44.816406 C 31.523438 44.757812 31.542969 44.691406 31.542969 44.617188 C 31.542969 44.546875 31.523438 44.480469 31.484375 44.417969 C 31.449219 44.359375 31.394531 44.3125 31.332031 44.289062 C 31.269531 44.261719 31.164062 44.25 31.019531 44.25 L 30.628906 44.25 Z M 30.628906 44.253906 "/><path style=" stroke:none;fill-rule:nonzero;fill:#1d1d1b;fill-opacity:1;" d="M 33.800781 43.988281 C 34.128906 43.988281 34.402344 44.097656 34.625 44.3125 C 34.84375 44.53125 34.953125 44.800781 34.953125 45.117188 C 34.953125 45.4375 34.84375 45.703125 34.625 45.925781 C 34.402344 46.144531 34.136719 46.253906 33.820312 46.253906 C 33.496094 46.253906 33.230469 46.144531 33.007812 45.925781 C 32.789062 45.703125 32.679688 45.441406 32.679688 45.128906 C 32.679688 44.917969 32.730469 44.726562 32.828125 44.550781 C 32.929688 44.375 33.066406 44.234375 33.238281 44.132812 C 33.414062 44.039062 33.601562 43.988281 33.800781 43.988281 Z M 33.8125 44.199219 C 33.65625 44.199219 33.5 44.242188 33.359375 44.324219 C 33.21875 44.410156 33.105469 44.523438 33.027344 44.664062 C 32.945312 44.804688 32.90625 44.960938 32.90625 45.136719 C 32.90625 45.390625 32.992188 45.605469 33.171875 45.785156 C 33.351562 45.960938 33.5625 46.050781 33.8125 46.050781 C 33.980469 46.050781 34.136719 46.007812 34.277344 45.929688 C 34.417969 45.847656 34.53125 45.734375 34.613281 45.59375 C 34.691406 45.453125 34.734375 45.296875 34.734375 45.121094 C 34.734375 44.953125 34.691406 44.796875 34.613281 44.660156 C 34.53125 44.523438 34.417969 44.410156 34.273438 44.324219 C 34.128906 44.242188 33.976562 44.199219 33.8125 44.199219 Z M 33.8125 44.199219 "/><path style=" stroke:none;fill-rule:nonzero;fill:#1d1d1b;fill-opacity:1;" d="M 35.972656 46.199219 L 35.972656 44.042969 L 36.417969 44.042969 C 36.738281 44.042969 36.972656 44.066406 37.121094 44.121094 C 37.328125 44.195312 37.492188 44.320312 37.613281 44.5 C 37.730469 44.679688 37.789062 44.898438 37.789062 45.148438 C 37.789062 45.363281 37.742188 45.550781 37.644531 45.71875 C 37.554688 45.882812 37.433594 46.003906 37.28125 46.082031 C 37.132812 46.160156 36.921875 46.199219 36.65625 46.199219 Z M 36.175781 46 L 36.425781 46 C 36.722656 46 36.933594 45.984375 37.046875 45.945312 C 37.210938 45.890625 37.335938 45.800781 37.433594 45.660156 C 37.523438 45.523438 37.570312 45.355469 37.570312 45.15625 C 37.570312 44.949219 37.519531 44.773438 37.421875 44.621094 C 37.320312 44.476562 37.179688 44.371094 37 44.316406 C 36.863281 44.277344 36.640625 44.253906 36.332031 44.253906 L 36.175781 44.253906 Z M 36.175781 46 "/><path style=" stroke:none;fill-rule:nonzero;fill:#1d1d1b;fill-opacity:1;" d="M 39.816406 43.988281 C 40.140625 43.988281 40.417969 44.097656 40.636719 44.3125 C 40.859375 44.53125 40.96875 44.800781 40.96875 45.117188 C 40.96875 45.4375 40.859375 45.703125 40.636719 45.925781 C 40.417969 46.144531 40.148438 46.253906 39.832031 46.253906 C 39.511719 46.253906 39.242188 46.144531 39.023438 45.925781 C 38.800781 45.703125 38.691406 45.441406 38.691406 45.128906 C 38.691406 44.917969 38.742188 44.726562 38.84375 44.550781 C 38.945312 44.375 39.082031 44.234375 39.253906 44.132812 C 39.425781 44.039062 39.617188 43.988281 39.816406 43.988281 Z M 39.828125 44.199219 C 39.667969 44.199219 39.515625 44.242188 39.375 44.324219 C 39.230469 44.410156 39.117188 44.523438 39.039062 44.664062 C 38.960938 44.804688 38.917969 44.960938 38.917969 45.136719 C 38.917969 45.390625 39.007812 45.605469 39.183594 45.785156 C 39.363281 45.960938 39.578125 46.050781 39.828125 46.050781 C 39.996094 46.050781 40.148438 46.007812 40.292969 45.929688 C 40.433594 45.847656 40.546875 45.734375 40.625 45.59375 C 40.703125 45.453125 40.746094 45.296875 40.746094 45.121094 C 40.746094 44.953125 40.703125 44.796875 40.625 44.660156 C 40.546875 44.523438 40.433594 44.410156 40.289062 44.324219 C 40.140625 44.242188 39.992188 44.199219 39.828125 44.199219 Z M 39.828125 44.199219 "/><path style=" stroke:none;fill-rule:nonzero;fill:#1d1d1b;fill-opacity:1;" d="M 41.980469 44.042969 L 42.199219 44.042969 L 42.199219 45.992188 L 43.027344 45.992188 L 43.027344 46.199219 L 41.980469 46.199219 Z M 41.980469 44.042969 "/><path style=" stroke:none;fill-rule:nonzero;fill:#1d1d1b;fill-opacity:1;" d="M 44.980469 43.988281 C 45.308594 43.988281 45.582031 44.097656 45.804688 44.3125 C 46.027344 44.53125 46.132812 44.800781 46.132812 45.117188 C 46.132812 45.4375 46.027344 45.703125 45.804688 45.925781 C 45.582031 46.144531 45.316406 46.253906 45 46.253906 C 44.675781 46.253906 44.410156 46.144531 44.1875 45.925781 C 43.96875 45.707031 43.859375 45.441406 43.859375 45.128906 C 43.859375 44.917969 43.910156 44.726562 44.011719 44.550781 C 44.109375 44.375 44.246094 44.234375 44.417969 44.132812 C 44.59375 44.039062 44.78125 43.988281 44.980469 43.988281 Z M 44.992188 44.199219 C 44.832031 44.199219 44.675781 44.242188 44.535156 44.324219 C 44.394531 44.410156 44.28125 44.523438 44.203125 44.664062 C 44.121094 44.804688 44.082031 44.960938 44.082031 45.136719 C 44.082031 45.390625 44.167969 45.605469 44.347656 45.785156 C 44.527344 45.960938 44.742188 46.050781 44.992188 46.050781 C 45.15625 46.050781 45.3125 46.007812 45.453125 45.929688 C 45.597656 45.847656 45.707031 45.734375 45.789062 45.59375 C 45.867188 45.453125 45.910156 45.296875 45.910156 45.121094 C 45.910156 44.953125 45.867188 44.796875 45.789062 44.660156 C 45.707031 44.523438 45.597656 44.410156 45.449219 44.324219 C 45.308594 44.242188 45.152344 44.199219 44.992188 44.199219 Z M 44.992188 44.199219 "/><path style=" stroke:none;fill-rule:nonzero;fill:#1d1d1b;fill-opacity:1;" d="M 49.230469 44.40625 L 49.0625 44.5625 C 48.941406 44.445312 48.8125 44.355469 48.667969 44.292969 C 48.527344 44.230469 48.382812 44.199219 48.25 44.199219 C 48.078125 44.199219 47.921875 44.242188 47.765625 44.324219 C 47.613281 44.410156 47.496094 44.523438 47.410156 44.664062 C 47.328125 44.804688 47.285156 44.957031 47.285156 45.113281 C 47.285156 45.277344 47.328125 45.429688 47.414062 45.578125 C 47.503906 45.722656 47.625 45.839844 47.773438 45.925781 C 47.929688 46.007812 48.09375 46.050781 48.28125 46.050781 C 48.5 46.050781 48.6875 45.988281 48.84375 45.863281 C 48.996094 45.734375 49.089844 45.574219 49.113281 45.375 L 48.425781 45.375 L 48.425781 45.164062 L 49.355469 45.164062 C 49.355469 45.5 49.257812 45.761719 49.058594 45.957031 C 48.863281 46.152344 48.601562 46.25 48.269531 46.25 C 47.871094 46.25 47.558594 46.113281 47.324219 45.839844 C 47.144531 45.632812 47.054688 45.390625 47.054688 45.113281 C 47.054688 44.910156 47.105469 44.71875 47.210938 44.542969 C 47.316406 44.367188 47.453125 44.230469 47.632812 44.128906 C 47.8125 44.03125 48.011719 43.980469 48.242188 43.980469 C 48.425781 43.980469 48.597656 44.011719 48.757812 44.078125 C 48.921875 44.144531 49.078125 44.257812 49.230469 44.40625 Z M 49.230469 44.40625 "/><path style=" stroke:none;fill-rule:nonzero;fill:#1d1d1b;fill-opacity:1;" d="M 50.183594 44.042969 L 50.429688 44.042969 L 50.980469 44.929688 L 51.523438 44.042969 L 51.773438 44.042969 L 51.089844 45.167969 L 51.089844 46.199219 L 50.875 46.199219 L 50.875 45.167969 Z M 50.183594 44.042969 "/><path style=" stroke:none;fill-rule:nonzero;fill:#090909;fill-opacity:1;" d="M 70.640625 40.652344 C 70.78125 40.464844 70.921875 40.269531 71.0625 40.082031 C 71.207031 39.886719 71.296875 39.660156 71.382812 39.433594 C 71.453125 39.246094 71.511719 39.054688 71.578125 38.855469 C 71.605469 38.765625 71.625 38.695312 71.636719 38.617188 C 71.65625 38.515625 71.675781 38.433594 71.6875 38.332031 C 71.707031 38.152344 71.691406 37.96875 71.765625 37.816406 C 71.808594 37.726562 71.917969 38.058594 71.921875 38.167969 C 71.941406 38.496094 71.910156 38.816406 71.847656 39.132812 C 71.828125 39.230469 71.792969 39.40625 71.757812 39.492188 C 71.691406 39.671875 71.65625 39.722656 71.570312 39.894531 C 71.507812 40.023438 71.398438 40.179688 71.3125 40.296875 C 71.097656 40.582031 70.867188 40.84375 70.609375 41.09375 C 70.414062 41.289062 70.3125 41.375 70.140625 41.59375 C 69.984375 41.792969 69.800781 42.113281 69.6875 42.292969 C 69.660156 42.34375 69.5625 42.582031 69.511719 42.542969 C 69.484375 42.523438 69.523438 42.375 69.53125 42.339844 C 69.632812 42.046875 69.863281 41.664062 70.035156 41.402344 "/><path style=" stroke:none;fill-rule:nonzero;fill:#090909;fill-opacity:1;" d="M 62.511719 54.308594 C 62.332031 54.382812 62.171875 54.414062 62.046875 54.460938 C 61.910156 54.515625 61.597656 54.628906 61.5 54.664062 C 61.246094 54.753906 61.011719 54.796875 60.742188 54.796875 C 60.515625 54.796875 60.273438 54.773438 60.042969 54.695312 C 59.96875 54.671875 59.921875 54.582031 59.914062 54.476562 C 59.988281 54.484375 60.039062 54.507812 60.101562 54.519531 C 60.253906 54.554688 60.390625 54.570312 60.546875 54.574219 C 60.597656 54.574219 60.65625 54.582031 60.699219 54.546875 C 60.875 54.371094 60.960938 54.050781 60.710938 53.902344 C 60.609375 53.839844 60.304688 53.796875 60.304688 53.796875 C 60.304688 53.796875 60.578125 53.507812 60.71875 53.347656 C 60.828125 53.226562 60.902344 53.136719 61.117188 52.976562 C 61.238281 52.886719 61.257812 52.875 61.527344 52.726562 C 61.535156 52.722656 61.523438 52.703125 61.507812 52.703125 C 61.175781 52.703125 60.777344 53.089844 60.519531 53.324219 C 60.328125 53.496094 60.199219 53.605469 60.015625 53.785156 C 59.929688 53.871094 59.859375 53.964844 59.773438 54.046875 C 59.601562 54.199219 59.421875 54.351562 59.242188 54.496094 C 59.042969 54.664062 58.792969 54.8125 58.535156 54.90625 C 58.398438 54.949219 58.210938 54.957031 58.070312 54.917969 C 57.875 54.867188 57.835938 54.792969 57.789062 54.597656 C 57.875 54.609375 57.953125 54.621094 58.03125 54.628906 C 58.125 54.636719 58.199219 54.660156 58.308594 54.65625 C 58.457031 54.652344 58.574219 54.605469 58.609375 54.453125 C 58.632812 54.324219 58.628906 54.234375 58.621094 54.144531 C 58.601562 53.964844 58.425781 53.886719 58.425781 53.886719 C 58.425781 53.886719 58.257812 53.800781 58.121094 53.824219 C 58.082031 53.832031 58.25 53.660156 58.253906 53.652344 C 58.636719 53.21875 59.152344 52.820312 59.492188 52.597656 C 59.542969 52.5625 59.597656 52.535156 59.675781 52.4375 C 59.667969 52.414062 59.550781 52.4375 59.503906 52.464844 C 59.355469 52.535156 59.230469 52.644531 59.085938 52.75 C 58.664062 53.070312 58.28125 53.378906 57.96875 53.78125 C 57.914062 53.855469 57.847656 53.933594 57.8125 54.007812 C 57.730469 54.164062 57.699219 54.222656 57.628906 54.378906 C 57.425781 54.492188 57.242188 54.679688 57.046875 54.78125 C 56.976562 54.816406 56.796875 54.847656 56.722656 54.839844 C 56.492188 54.8125 56.367188 54.824219 56.121094 54.671875 C 56.097656 54.65625 56.023438 54.59375 56.003906 54.566406 C 55.890625 54.417969 55.917969 54.371094 55.992188 54.210938 C 56.246094 54.351562 56.605469 54.558594 56.726562 54.417969 C 56.871094 54.242188 56.90625 54.171875 56.984375 53.929688 C 57.058594 53.695312 56.695312 53.570312 56.484375 53.453125 C 56.503906 53.421875 56.523438 53.390625 56.546875 53.367188 C 56.648438 53.277344 56.75 53.195312 56.859375 53.113281 C 57.0625 52.960938 57.269531 52.804688 57.476562 52.65625 C 57.636719 52.542969 57.84375 52.421875 57.96875 52.34375 C 58.15625 52.222656 58.394531 52 58.296875 52.027344 C 58.214844 52.046875 58.082031 52.136719 57.996094 52.191406 C 57.941406 52.226562 57.890625 52.25 57.839844 52.289062 C 57.402344 52.605469 56.933594 52.882812 56.523438 53.226562 C 56.328125 53.390625 56.148438 53.570312 56.007812 53.777344 C 55.871094 53.980469 55.769531 54.195312 55.738281 54.441406 C 55.734375 54.460938 55.730469 54.488281 55.714844 54.496094 C 55.589844 54.597656 55.46875 54.695312 55.300781 54.699219 C 55.09375 54.699219 54.917969 54.644531 54.769531 54.496094 C 54.621094 54.351562 54.613281 54.328125 54.707031 54.121094 C 54.761719 54.136719 54.820312 54.148438 54.878906 54.171875 C 54.9375 54.191406 54.988281 54.214844 55.054688 54.238281 C 55.179688 54.273438 55.265625 54.246094 55.328125 54.136719 C 55.378906 54.050781 55.429688 53.957031 55.464844 53.863281 C 55.550781 53.640625 55.609375 53.398438 55.371094 53.238281 C 55.328125 53.210938 55.285156 53.175781 55.328125 53.125 C 55.4375 52.972656 55.554688 52.886719 55.695312 52.777344 C 55.769531 52.71875 55.851562 52.65625 55.929688 52.597656 C 56.15625 52.421875 56.546875 52.078125 56.789062 51.890625 C 57.050781 51.6875 57.027344 51.703125 57.300781 51.542969 C 57.417969 51.46875 57.742188 51.375 57.589844 51.335938 C 57.464844 51.304688 57.230469 51.402344 57.113281 51.460938 C 57.03125 51.503906 56.953125 51.554688 56.871094 51.597656 C 56.785156 51.644531 56.691406 51.691406 56.613281 51.75 C 56.367188 51.925781 56.207031 52.050781 55.964844 52.234375 C 55.949219 52.246094 55.855469 52.324219 55.835938 52.335938 C 55.726562 52.417969 55.710938 52.441406 55.648438 52.492188 C 55.320312 52.746094 55.144531 52.945312 54.875 53.21875 C 54.863281 53.226562 54.820312 53.28125 54.800781 53.292969 C 54.773438 53.324219 54.757812 53.34375 54.730469 53.375 C 54.703125 53.40625 54.675781 53.433594 54.648438 53.464844 C 54.613281 53.503906 54.574219 53.542969 54.550781 53.574219 C 54.519531 53.621094 54.480469 53.699219 54.476562 53.707031 C 54.449219 53.84375 54.527344 53.890625 54.492188 53.980469 C 54.433594 54.132812 54.261719 54.386719 54.085938 54.414062 C 53.988281 54.425781 53.71875 54.363281 53.636719 54.304688 C 53.515625 54.214844 53.324219 54.078125 53.246094 53.902344 C 53.214844 53.84375 53.210938 53.714844 53.226562 53.699219 C 53.253906 53.652344 53.335938 53.714844 53.425781 53.761719 C 53.582031 53.835938 53.6875 53.910156 53.847656 53.941406 C 54.003906 53.96875 54.117188 53.925781 54.214844 53.804688 C 54.273438 53.726562 54.394531 53.597656 54.457031 53.53125 C 54.460938 53.527344 54.484375 53.503906 54.488281 53.5 C 54.535156 53.449219 54.53125 53.453125 54.558594 53.417969 C 54.59375 53.386719 54.617188 53.34375 54.644531 53.300781 C 54.660156 53.269531 54.667969 53.234375 54.679688 53.191406 C 54.710938 53.082031 54.753906 52.710938 54.523438 52.53125 C 54.640625 52.417969 54.769531 52.269531 54.886719 52.175781 C 55.085938 52.015625 55.414062 51.683594 55.414062 51.683594 C 55.414062 51.683594 55.761719 51.347656 55.894531 51.226562 C 56 51.136719 56.097656 51.074219 56.160156 51.015625 C 56.253906 50.929688 56.570312 50.648438 56.570312 50.648438 C 56.570312 50.648438 56.960938 50.382812 57.160156 50.25 C 57.226562 50.207031 57.414062 50.148438 57.488281 50.113281 C 57.683594 50.035156 57.839844 49.957031 57.957031 49.753906 C 58.078125 49.546875 58.195312 49.402344 58.316406 49.195312 C 58.617188 48.6875 58.984375 48.21875 59.25 47.6875 C 59.390625 47.414062 59.523438 47.132812 59.644531 46.851562 C 59.761719 46.585938 59.855469 46.316406 59.972656 46.054688 C 60.136719 45.691406 60.3125 45.335938 60.480469 44.980469 C 60.582031 44.777344 60.675781 44.570312 60.785156 44.375 C 61.144531 43.765625 61.546875 43.1875 61.957031 42.609375 C 62.054688 42.46875 62.148438 42.316406 62.226562 42.164062 C 62.355469 41.917969 62.46875 41.664062 62.59375 41.417969 C 62.804688 41.003906 62.996094 40.582031 63.152344 40.148438 C 63.273438 39.820312 63.402344 39.492188 63.5625 39.183594 C 63.734375 38.851562 63.941406 38.539062 64.136719 38.214844 C 64.316406 37.914062 64.5 37.613281 64.683594 37.320312 C 65.027344 36.761719 65.378906 36.207031 65.714844 35.648438 C 65.910156 35.324219 66.089844 35.007812 66.285156 34.660156 C 66.351562 34.542969 66.429688 34.433594 66.496094 34.316406 C 66.6875 33.972656 66.886719 33.628906 67.050781 33.269531 C 67.09375 33.179688 67.148438 33.085938 67.183594 32.992188 C 67.328125 32.636719 67.46875 32.285156 67.597656 31.929688 C 67.691406 31.679688 67.785156 31.429688 67.855469 31.171875 C 67.996094 30.652344 68.117188 30.132812 68.25 29.617188 C 68.316406 29.359375 68.394531 29.105469 68.472656 28.851562 C 68.625 28.359375 68.773438 27.871094 68.929688 27.378906 C 69.03125 27.050781 69.140625 26.734375 69.242188 26.410156 C 69.34375 26.078125 69.4375 25.75 69.53125 25.414062 C 69.589844 25.214844 69.605469 25.128906 69.6875 24.9375 C 69.707031 24.894531 69.824219 24.648438 69.78125 24.660156 C 69.703125 24.6875 69.621094 24.800781 69.585938 24.859375 C 69.542969 24.925781 69.484375 25.039062 69.445312 25.140625 C 69.367188 25.34375 69.285156 25.550781 69.203125 25.757812 C 69.15625 25.882812 69.113281 26.007812 69.066406 26.132812 C 68.875 26.644531 68.675781 27.152344 68.492188 27.664062 C 68.316406 28.152344 68.167969 28.65625 68.042969 29.160156 C 67.894531 29.753906 67.726562 30.339844 67.589844 30.9375 C 67.496094 31.347656 67.367188 31.742188 67.191406 32.117188 C 67.015625 32.511719 66.824219 32.898438 66.664062 33.300781 C 66.558594 33.554688 66.417969 33.796875 66.289062 34.042969 C 66.125 34.351562 66.070312 34.421875 65.878906 34.792969 C 65.847656 34.851562 65.734375 35.0625 65.695312 35.113281 C 65.542969 35.335938 65.449219 35.53125 65.300781 35.769531 C 65.21875 35.902344 65.125 36.03125 65.039062 36.171875 C 64.683594 36.75 64.335938 37.332031 63.980469 37.910156 C 63.96875 37.933594 63.953125 37.957031 63.941406 37.976562 C 63.800781 38.210938 63.664062 38.402344 63.546875 38.617188 C 63.386719 38.90625 63.367188 38.933594 63.203125 39.222656 C 63.128906 39.359375 62.976562 39.738281 62.910156 39.902344 C 62.875 39.992188 62.847656 40.09375 62.8125 40.191406 C 62.660156 40.5625 62.515625 40.933594 62.355469 41.304688 C 62.285156 41.460938 62.203125 41.621094 62.113281 41.765625 C 61.992188 41.96875 61.800781 42.296875 61.628906 42.585938 C 61.621094 42.597656 61.613281 42.609375 61.605469 42.621094 C 61.351562 43.015625 61.089844 43.40625 60.839844 43.804688 C 60.652344 44.105469 60.457031 44.40625 60.324219 44.734375 C 60.253906 44.90625 60.191406 45.082031 60.101562 45.242188 C 59.824219 45.746094 59.636719 46.28125 59.398438 46.804688 C 59.242188 47.144531 59.097656 47.480469 58.914062 47.800781 C 58.71875 48.152344 58.484375 48.476562 58.265625 48.816406 C 58.191406 48.933594 58.113281 49.050781 58.046875 49.167969 C 57.917969 49.390625 57.824219 49.527344 57.644531 49.6875 C 57.46875 49.851562 57.132812 49.980469 56.917969 50.09375 C 56.707031 50.207031 56.355469 50.523438 56.355469 50.523438 L 55.808594 51.003906 C 55.808594 51.003906 55.5625 51.226562 55.484375 51.308594 C 55.394531 51.394531 55.242188 51.523438 55.140625 51.625 C 54.933594 51.832031 54.863281 51.886719 54.640625 52.085938 C 54.582031 52.132812 54.390625 52.304688 54.34375 52.363281 C 54.289062 52.429688 54.222656 52.453125 54.148438 52.476562 C 54.007812 52.519531 53.867188 52.558594 53.742188 52.617188 C 53.507812 52.730469 53.273438 52.875 53.09375 53.074219 C 53.027344 53.144531 52.996094 53.179688 52.945312 53.265625 C 52.902344 53.335938 52.898438 53.445312 52.945312 53.480469 C 53.011719 53.535156 53.003906 53.597656 52.988281 53.660156 C 52.945312 53.847656 53.019531 54.003906 53.136719 54.140625 C 53.304688 54.34375 53.441406 54.460938 53.6875 54.554688 C 53.785156 54.59375 53.988281 54.640625 54.117188 54.628906 C 54.28125 54.613281 54.300781 54.613281 54.496094 54.472656 C 54.632812 54.578125 54.734375 54.691406 54.878906 54.78125 C 55.042969 54.882812 55.226562 54.957031 55.429688 54.898438 C 55.582031 54.851562 55.730469 54.78125 55.890625 54.71875 C 55.925781 54.742188 55.964844 54.777344 56.011719 54.808594 C 56.179688 54.933594 56.328125 54.996094 56.507812 55.042969 C 56.839844 55.121094 57.039062 55.066406 57.332031 54.902344 C 57.398438 54.863281 57.53125 54.777344 57.59375 54.742188 C 57.726562 54.90625 57.773438 54.992188 58.007812 55.09375 C 58.175781 55.164062 58.425781 55.125 58.585938 55.101562 C 58.824219 55.0625 58.945312 54.980469 59.097656 54.886719 C 59.121094 54.875 59.253906 54.792969 59.28125 54.78125 C 59.40625 54.714844 59.667969 54.546875 59.667969 54.546875 C 59.667969 54.546875 59.703125 54.683594 59.722656 54.726562 C 59.753906 54.785156 59.773438 54.8125 59.910156 54.886719 C 60.078125 54.980469 60.355469 55.015625 60.570312 55.03125 C 61.011719 55.066406 61.257812 55.027344 61.664062 54.902344 C 61.9375 54.8125 62.164062 54.667969 62.425781 54.574219 C 62.664062 54.492188 62.769531 54.460938 63.039062 54.351562 C 63.246094 54.261719 63.464844 54.183594 63.675781 54.113281 C 63.890625 54.039062 64.078125 53.917969 64.289062 53.800781 C 64.46875 53.699219 64.601562 53.582031 64.757812 53.46875 C 64.953125 53.328125 65.132812 53.1875 65.28125 52.996094 C 65.460938 52.769531 65.644531 52.539062 65.828125 52.304688 C 65.925781 52.183594 66.019531 52.0625 66.113281 51.9375 C 66.308594 51.675781 66.5 51.402344 66.691406 51.140625 C 66.863281 50.90625 67.027344 50.671875 67.203125 50.441406 C 67.375 50.210938 67.546875 49.976562 67.734375 49.757812 C 67.992188 49.464844 68.253906 49.171875 68.515625 48.882812 C 68.644531 48.742188 68.769531 48.59375 68.917969 48.476562 C 69.308594 48.160156 69.691406 47.871094 70.09375 47.5625 C 70.257812 47.4375 70.414062 47.355469 70.648438 47.253906 C 70.703125 47.230469 70.761719 47.207031 70.820312 47.183594 C 70.933594 47.136719 71.046875 47.09375 71.160156 47.042969 C 71.277344 46.992188 71.394531 46.933594 71.515625 46.886719 C 71.6875 46.828125 71.828125 46.789062 71.976562 46.730469 C 72.109375 46.675781 72.332031 46.585938 72.429688 46.554688 C 72.949219 46.386719 73.4375 46.175781 73.628906 46.023438 C 73.792969 45.898438 74.007812 45.765625 74.144531 45.53125 C 74.226562 45.394531 74.28125 45.335938 74.414062 44.941406 C 74.601562 44.390625 74.589844 44.5 74.695312 43.738281 C 74.726562 43.542969 74.726562 43.460938 74.734375 43.285156 C 74.738281 43.1875 74.742188 42.804688 74.753906 42.675781 C 74.785156 42.378906 74.75 41.960938 74.726562 41.613281 C 74.679688 40.984375 74.574219 40.691406 74.441406 40.113281 C 74.363281 39.765625 74.269531 39.417969 74.125 39.082031 C 73.988281 38.769531 73.859375 38.449219 73.730469 38.132812 C 73.683594 38.019531 73.640625 37.945312 73.621094 37.78125 C 73.574219 37.429688 73.628906 37.066406 73.683594 36.71875 C 73.757812 36.207031 73.863281 35.707031 73.972656 35.203125 C 74.066406 34.742188 74.171875 34.289062 74.296875 33.835938 C 74.433594 33.328125 74.585938 32.820312 74.816406 32.339844 C 75.175781 31.609375 75.558594 30.890625 75.972656 30.191406 C 76.398438 29.472656 76.882812 28.792969 77.351562 28.105469 C 77.519531 27.855469 77.699219 27.621094 77.878906 27.378906 C 78.125 27.039062 78.371094 26.703125 78.617188 26.367188 C 78.714844 26.234375 78.824219 26.113281 78.929688 25.984375 C 78.96875 25.933594 79.113281 25.707031 78.960938 25.800781 C 78.921875 25.824219 78.894531 25.855469 78.875 25.882812 C 78.628906 26.1875 78.386719 26.496094 78.140625 26.796875 C 77.953125 27.03125 77.75 27.253906 77.574219 27.488281 C 77.148438 28.058594 76.730469 28.632812 76.304688 29.207031 C 75.960938 29.664062 75.660156 30.148438 75.378906 30.644531 C 75.195312 30.964844 75.015625 31.292969 74.84375 31.617188 C 74.605469 32.074219 74.402344 32.542969 74.246094 33.035156 C 74.101562 33.496094 73.945312 33.953125 73.84375 34.429688 C 73.78125 34.726562 73.710938 35.019531 73.652344 35.320312 C 73.59375 35.617188 73.507812 35.894531 73.449219 36.1875 C 73.375 36.574219 73.3125 36.964844 73.25 37.355469 C 73.207031 37.613281 73.257812 37.875 73.339844 38.113281 C 73.445312 38.417969 73.597656 38.703125 73.71875 39.003906 C 73.796875 39.195312 73.863281 39.386719 73.921875 39.589844 C 73.984375 39.808594 74.035156 40.035156 74.089844 40.261719 C 74.136719 40.441406 74.183594 40.625 74.222656 40.808594 C 74.265625 41.046875 74.265625 41.121094 74.292969 41.378906 C 74.3125 41.578125 74.3125 41.703125 74.320312 41.902344 C 74.34375 42.339844 74.332031 42.574219 74.332031 42.902344 C 74.332031 43.28125 74.292969 43.640625 74.257812 43.855469 C 74.230469 44.042969 74.160156 44.390625 74.121094 44.523438 C 74.054688 44.746094 73.960938 45.101562 73.667969 45.398438 C 73.398438 45.664062 72.976562 46 72.523438 46.140625 C 72.191406 46.242188 71.300781 46.644531 71.300781 46.644531 L 70.695312 46.910156 C 70.449219 47.015625 70.25 47.128906 70.007812 47.277344 C 69.722656 47.449219 69.480469 47.667969 69.222656 47.871094 C 68.902344 48.125 68.613281 48.394531 68.351562 48.703125 C 68.175781 48.917969 67.984375 49.121094 67.800781 49.328125 C 67.578125 49.59375 67.351562 49.851562 67.144531 50.121094 C 66.929688 50.394531 66.730469 50.671875 66.527344 50.953125 C 66.386719 51.140625 66.257812 51.332031 66.128906 51.519531 C 66.050781 51.636719 65.988281 51.757812 65.902344 51.871094 C 65.664062 52.183594 65.429688 52.492188 65.179688 52.796875 C 65.085938 52.914062 64.992188 53.015625 64.855469 53.128906 C 64.679688 53.269531 64.5 53.402344 64.316406 53.535156 C 64.078125 53.710938 63.921875 53.789062 63.703125 53.882812 C 63.570312 53.9375 63.460938 54 63.34375 54.027344 M 56.0625 53.984375 C 56.117188 53.859375 56.289062 53.640625 56.375 53.640625 C 56.976562 53.863281 56.753906 53.996094 56.679688 54.199219 C 56.613281 54.382812 56.246094 54.183594 56.0625 54.0625 C 56.035156 54.042969 56.054688 54.007812 56.0625 53.984375 Z M 54.785156 53.597656 C 54.855469 53.496094 54.945312 53.398438 55.03125 53.308594 C 55.078125 53.257812 55.132812 53.253906 55.203125 53.300781 C 55.308594 53.378906 55.382812 53.429688 55.320312 53.617188 C 55.273438 53.742188 55.242188 53.839844 55.191406 53.9375 C 55.144531 54.027344 55.105469 54.027344 55.015625 53.984375 C 54.921875 53.9375 54.835938 53.902344 54.734375 53.832031 C 54.664062 53.785156 54.738281 53.667969 54.785156 53.597656 Z M 53.167969 53.34375 C 53.136719 53.179688 53.324219 53.054688 53.394531 53.011719 C 53.617188 52.867188 53.78125 52.742188 54.035156 52.652344 C 54.300781 52.554688 54.496094 52.699219 54.492188 52.984375 C 54.492188 53.078125 54.460938 53.140625 54.410156 53.203125 C 54.300781 53.335938 54.21875 53.445312 54.109375 53.574219 C 54.085938 53.601562 54.027344 53.660156 53.988281 53.660156 C 53.726562 53.660156 53.488281 53.574219 53.269531 53.445312 C 53.191406 53.40625 53.171875 53.394531 53.167969 53.34375 Z M 57.78125 54.371094 C 57.78125 54.371094 57.863281 54.050781 57.996094 54.015625 C 58.125 53.984375 58.222656 54.007812 58.320312 54.054688 C 58.425781 54.105469 58.472656 54.144531 58.460938 54.253906 C 58.460938 54.261719 58.457031 54.273438 58.457031 54.285156 C 58.445312 54.480469 58.484375 54.460938 58.328125 54.480469 C 58.152344 54.5 58.070312 54.476562 57.929688 54.441406 C 57.882812 54.429688 57.789062 54.390625 57.78125 54.371094 Z M 59.898438 54.316406 C 59.910156 54.144531 60.023438 54.054688 60.09375 53.980469 C 60.121094 53.949219 60.167969 53.941406 60.199219 53.949219 C 60.332031 53.972656 60.53125 54.019531 60.632812 54.070312 C 60.683594 54.09375 60.742188 54.132812 60.660156 54.277344 C 60.5625 54.457031 60.59375 54.476562 60.257812 54.410156 C 60.226562 54.40625 59.898438 54.34375 59.898438 54.316406 Z M 59.898438 54.316406 "/></g></svg>